PathFileType	3	(X/Y/Z)	F:\ViconData\AntennenMessung\Messung1\Session1\ID07.trc
DataRate	CameraRate	NumFrames	NumMarkers	Units	OrigDataRate	OrigDataStartFrame	OrigNumFrames
120.0	120.0	4	70	mm	120.0	108	856	
Frame#	Time	Ashort			Along			Atop			A4			Bshort			Blong			Btop			B4			Cshort			Clong			Ctop			C4			Dshort			Dlong			Dtop			D4			Eshort			Elong			Etop			E4			Fshort			Flong			Ftop			F4			Gshort			Glong			Gtop			G4			Hshort			Hlong			Htop			H4			I1			I2			I3			I4			I5			WandAshort			WandAlong			WandAtop			WandA4			WandA15			WandBshort			WandB4			WandB5			WandBtop			WandBlong			WandCshort			WandClong			WandCtop			WandC4			WandC5			Acenter			Aantenna			Bcenter			Bantenna			Ccenter			Cantenna			Dcenter			Dantenna			Ecenter			Eantenna			Fcenter			Fantenna			Gcenter			Gantenna			Hcenter			Hantenna			Icenter			Iantenna			
		X1	Y1	Z1	X2	Y2	Z2	X3	Y3	Z3	X4	Y4	Z4	X5	Y5	Z5	X6	Y6	Z6	X7	Y7	Z7	X8	Y8	Z8	X9	Y9	Z9	X10	Y10	Z10	X11	Y11	Z11	X12	Y12	Z12	X13	Y13	Z13	X14	Y14	Z14	X15	Y15	Z15	X16	Y16	Z16	X17	Y17	Z17	X18	Y18	Z18	X19	Y19	Z19	X20	Y20	Z20	X21	Y21	Z21	X22	Y22	Z22	X23	Y23	Z23	X24	Y24	Z24	X25	Y25	Z25	X26	Y26	Z26	X27	Y27	Z27	X28	Y28	Z28	X29	Y29	Z29	X30	Y30	Z30	X31	Y31	Z31	X32	Y32	Z32	X33	Y33	Z33	X34	Y34	Z34	X35	Y35	Z35	X36	Y36	Z36	X37	Y37	Z37	X38	Y38	Z38	X39	Y39	Z39	X40	Y40	Z40	X41	Y41	Z41	X42	Y42	Z42	X43	Y43	Z43	X44	Y44	Z44	X45	Y45	Z45	X46	Y46	Z46	X47	Y47	Z47	X48	Y48	Z48	X49	Y49	Z49	X50	Y50	Z50	X51	Y51	Z51	X52	Y52	Z52	X53	Y53	Z53	X54	Y54	Z54	X55	Y55	Z55	X56	Y56	Z56	X57	Y57	Z57	X58	Y58	Z58	X59	Y59	Z59	X60	Y60	Z60	X61	Y61	Z61	X62	Y62	Z62	X63	Y63	Z63	X64	Y64	Z64	X65	Y65	Z65	X66	Y66	Z66	X67	Y67	Z67	X68	Y68	Z68	X69	Y69	Z69	X70	Y70	Z70	
108	0.89166667	-1038.2518	214.5764	-1644.1564	-1109.324	203.86839	-1599.5374	-1063.4818	173.0379	-1625.9269	-1054.1797	262.2099	-1634.8665	-1352.7629	235.25812	1003.837	-1281.4513	227.36441	1052.2606	-1322.9255	194.19936	1020.7316	-1284.405	287.95834	1052.6421	813.88336	187.60869	1209.5233	892.40594	178.15457	1179.1218	844.56641	145.41554	1198.2794	860.95056	292.40225	1167.2883	1115.9032	209.96143	-1401.8308	1056.3158	194.08815	-1460.1573	1095.1262	162.34259	-1423.7583	1069.8038	238.84869	-1425.95	-1204.545	1686.0015	-1563.3027	-1129.1631	1688.2802	-1606.0526	-1173.1414	1724.4797	-1581.9943	-1133.5374	1581.1187	-1603.5773	-1239.3676	1698.6674	1119.2601	-1309.4667	1698.9006	1071.9572	-1270.4871	1736.2621	1096.871	-1245.6796	1592.8394	1110.6616	988.82007	1664.2444	1162.2794	957.30719	1700.4467	1183.8282	921.96552	1662.2782	1214.8547	939.8158	1659.4072	1159.8743	999.23059	1668.4846	-1579.4124	1058.7828	1669.9087	-1518.7498	1025.0884	1708.0602	-1551.1687	1059.3687	1672.2556	-1585.6183	354.7702	169.09938	19.822493	349.24338	177.16667	103.44246	352.35318	132.46886	61.249035	385.10693	173.35498	57.642704	304.87839	171.91003	53.620663																																														-1068.5538	210.01097	-1625.1327	-1073.8531	248.64037	-1624.3031	-1321.6404	231.81306	1024.9706	-1320.3169	270.54541	1029.3354	848.33588	183.46059	1196.1844	852.17542	222.21242	1194.0505	1088.8341	202.75061	-1428.3269	1082.8707	241.04797	-1432.657	-1171.9053	1686.988	-1581.8131	-1170.6202	1648.0096	-1581.6246	-1271.217	1698.7733	1097.7679	-1271.9761	1659.7919	1098.7007	952.74731	1705.6849	1186.9462	972.72626	1733.858	1168.8322	1026.4968	1669.1365	-1551.6376	1027.907	1630.1649	-1552.1069	352.28909	172.72095	57.361446	352.22723	211.54028	53.612244
109	0.9	-1038.2484	214.60646	-1644.1573	-1109.3252	203.89156	-1599.5081	-1063.4713	173.01035	-1625.9645	-1054.1613	262.23816	-1634.9095	-1352.7556	235.28865	1003.8207	-1281.3894	227.40352	1052.1881	-1322.8428	194.17638	1020.7427	-1284.3864	287.91379	1052.6238	813.91827	187.65086	1209.4591	892.40118	178.21681	1179.1307	844.49695	145.4437	1198.3108	860.90906	292.44867	1167.2645	1115.9009	209.9762	-1401.8273	1056.3511	194.03571	-1460.1339	1095.1503	162.33377	-1423.8041	1069.8214	238.88925	-1425.9556	-1204.538	1686.007	-1563.3159	-1129.153	1688.3555	-1606.2981	-1173.1356	1724.4832	-1582.001	-1133.5518	1581.1331	-1603.5995	-1239.58	1698.9673	1119.3517	-1309.4161	1698.8152	1071.9211	-1270.3331	1736.0573	1096.7957	-1245.7197	1592.9351	1110.6849	988.82843	1664.2261	1162.238	957.26361	1700.4811	1183.792	922.56525	1662.1354	1214.894	939.8526	1659.3542	1159.9719	999.21405	1668.4614	-1579.4008	1058.7689	1669.8849	-1518.755	1025.0858	1708.0529	-1551.1716	1059.3517	1672.2373	-1585.6224	354.73816	169.0188	19.862066	349.24103	177.18546	103.4236	352.33612	132.41002	61.254711	385.11456	173.37077	57.613201	304.89255	171.84793	53.640266																																														-1068.5319	210.0412	-1625.1337	-1073.811	248.6725	-1624.2668	-1321.5474	231.84048	1024.9714	-1320.2152	270.57434	1029.3206	848.25494	183.52342	1196.1902	852.07922	222.27542	1194.0323	1088.801	202.72202	-1428.3613	1082.7817	241.01173	-1432.6818	-1171.9191	1687.0231	-1581.9141	-1170.6532	1648.0436	-1581.8237	-1271.0536	1698.8988	1097.9756	-1271.8092	1659.9257	1099.2133	952.99402	1705.3849	1186.7075	972.79767	1733.5327	1168.363	1026.4843	1669.1132	-1551.6309	1027.8839	1630.141	-1552.0906	352.27426	172.67915	57.315048	352.21469	211.4938	53.517685
110	0.90833333	-1038.2478	214.59285	-1644.1428	-1109.3204	203.8945	-1599.5031	-1063.472	172.99657	-1625.9745	-1054.1326	262.18915	-1634.959	-1352.7865	235.20062	1003.843	-1281.3663	227.44463	1052.249	-1322.9905	194.0744	1020.7745	-1284.4888	287.97757	1052.6949	813.97522	187.53871	1209.3634	892.22705	178.09473	1179.1121	844.48834	145.39413	1198.2677	860.93091	292.43671	1167.2065	1115.8992	209.99194	-1401.8351	1056.3583	194.07492	-1460.1813	1095.2164	162.45638	-1423.8259	1069.797	238.80927	-1425.9443	-1204.5312	1685.9998	-1563.3118	-1129.1449	1688.3506	-1606.3135	-1173.1454	1724.4833	-1582.0073	-1133.5209	1581.1124	-1603.6042	-1239.5742	1698.9618	1119.3513	-1309.4104	1698.7969	1071.9131	-1270.4087	1736.1454	1096.8202	-1245.7102	1592.8679	1110.6619	988.83044	1664.2314	1162.2783	957.22687	1700.5289	1183.7991	921.98383	1662.3638	1214.8037	939.82385	1659.3563	1159.8759	999.2207	1668.4688	-1579.4111	1058.7668	1669.8878	-1518.7437	1025.0852	1708.0491	-1551.1678	1059.3499	1672.2439	-1585.6254	354.7435	169.04797	19.86208	349.23141	177.16678	103.42802	352.33838	132.45337	61.252583	385.10995	173.33891	57.61507	304.86749	171.87933	53.622761																																														-1068.5175	210.03642	-1625.1307	-1073.78	248.66969	-1624.2507	-1321.6968	231.82437	1024.9146	-1320.3691	270.56949	1029.1636	848.24347	183.40297	1196.1156	852.0719	222.15254	1193.9215	1088.8582	202.76309	-1428.3334	1082.8179	241.05383	-1432.6154	-1171.9229	1687.0165	-1581.9121	-1170.6509	1648.0374	-1581.8132	-1271.0856	1698.8872	1097.9462	-1271.7937	1659.9115	1099.1241	952.72705	1705.697	1186.863	972.7002	1733.8496	1168.7108	1026.4862	1669.1184	-1551.6322	1027.8887	1630.1464	-1552.097	352.27145	172.68903	57.339096	352.20697	211.50578	53.563614
111	0.91666667	-1038.266	214.68385	-1644.2025	-1109.3406	203.85745	-1599.5085	-1063.5062	172.98901	-1625.9099	-1054.1636	262.23624	-1634.9229	-1352.7231	235.27432	1003.8038	-1281.3763	227.37248	1052.2067	-1322.8691	194.15967	1020.6998	-1284.522	287.79538	1052.697	813.93604	187.7952	1209.4706	892.39758	178.16936	1179.1229	844.48102	145.45682	1198.2892	861.06866	292.80258	1167.0669	1115.9032	209.98743	-1401.8477	1056.3175	194.04883	-1460.1412	1095.1818	162.40927	-1423.8129	1069.7745	238.85986	-1425.9637	-1204.5358	1686.0059	-1563.3232	-1129.1541	1688.3575	-1606.3223	-1173.1405	1724.4691	-1581.9976	-1133.5155	1581.1213	-1603.6136	-1239.6011	1699.0029	1119.3575	-1309.3274	1698.6406	1071.8478	-1270.4631	1736.2124	1096.8596	-1245.6759	1592.7971	1110.6542	988.81323	1664.1948	1162.2808	957.24701	1700.5391	1183.7649	922.05945	1662.3037	1214.8345	939.85193	1659.4182	1159.8323	999.23151	1668.4697	-1579.3921	1058.9739	1670.1639	-1518.6888	1025.08	1708.0365	-1551.1786	1059.3518	1672.2451	-1585.6284	354.73013	168.98782	19.839392	349.2327	177.18054	103.44656	352.3688	132.47426	61.18148	385.10822	173.37859	57.611397	304.92465	171.84514	53.641796																																														-1068.6433	210.05661	-1625.1	-1073.9958	248.67834	-1624.2563	-1321.5723	231.82428	1024.937	-1320.2386	270.55713	1029.2943	848.33594	183.57494	1196.1652	852.25403	222.31752	1194.0067	1088.8226	202.74362	-1428.3409	1082.7859	241.03305	-1432.6395	-1171.9294	1687.0231	-1581.9224	-1170.6688	1648.0435	-1581.8444	-1271.014	1698.8397	1097.9535	-1271.5889	1659.8606	1099.0942	952.83282	1705.6213	1186.7692	972.80487	1733.7346	1168.5548	1026.5957	1669.2457	-1551.5875	1028.1185	1630.2776	-1551.9985	352.27106	172.65253	57.237961	352.17664	211.46591	53.428406
